<?xml version="1.0" encoding="iso-8859-1"?>
<!-- Uploaded to: SVG Repo, www.svgrepo.com, Generator: SVG Repo Mixer Tools -->
<svg height="800px" width="800px" version="1.1" id="Layer_1" xmlns="http://www.w3.org/2000/svg" xmlns:xlink="http://www.w3.org/1999/xlink" 
	 viewBox="0 0 512 512" xml:space="preserve">
<path style="fill:#F8E99B;" d="M0,12.8v448c0,21.207,17.193,38.4,38.4,38.4h435.2c21.207,0,38.4-17.193,38.4-38.4V64H204.8
	l-51.2-51.2H0z"/>
<path style="fill:#F6E27D;" d="M255.999,64v435.2H473.6c21.207,0,38.4-17.193,38.4-38.4V64H255.999z"/>
<path style="fill:#95D5A7;" d="M230.4,396.8L128,294.4L0,422.4v38.4c0,21.207,17.193,38.4,38.4,38.4h435.2
	c21.207,0,38.4-17.193,38.4-38.4v-89.6l-128-128L230.4,396.8z"/>
<circle style="fill:#ECB45C;" cx="179.2" cy="204.8" r="38.4"/>
<path style="fill:#80CB93;" d="M384,243.2l-128.001,128v128H473.6c21.207,0,38.4-17.193,38.4-38.4v-89.6L384,243.2z"/>
</svg>