<?xml version="1.0" encoding="iso-8859-1"?>
<!-- Uploaded to: SVG Repo, www.svgrepo.com, Generator: SVG Repo Mixer Tools -->
<svg version="1.1" id="Capa_1" xmlns="http://www.w3.org/2000/svg" xmlns:xlink="http://www.w3.org/1999/xlink" 
	 viewBox="0 0 440 440" xml:space="preserve">
<g id="XMLID_1823_">
	<polygon id="XMLID_1824_" style="fill:#DEDDE0;" points="220,220 160,220 100,220 70,220 50,250 220,250 	"/>
	<polygon id="XMLID_1825_" style="fill:#CDCDD0;" points="240,220 220,220 220,250 410,250 430,220 360,220 270,220 	"/>
	<polygon id="XMLID_1826_" style="fill:#FF5023;" points="220,250 50,250 30,280 220,280 	"/>
	<polygon id="XMLID_1827_" style="fill:#BF3C1A;" points="220,280 390,280 410,250 220,250 	"/>
	<polygon id="XMLID_1828_" style="fill:#DEDDE0;" points="240,190 270,190 340,190 320,160 190,160 160,160 110,160 90,190 120,190 
		160,190 	"/>
	<polygon id="XMLID_1829_" style="fill:#ACABB1;" points="170,130 140,130 160,160 190,160 	"/>
	<polygon id="XMLID_1830_" style="fill:#ACABB1;" points="160,190 120,190 100,220 160,220 	"/>
	<polygon id="XMLID_1831_" style="fill:#565659;" points="240,190 160,190 160,220 220,220 240,220 	"/>
	<polygon id="XMLID_1832_" style="fill:#565659;" points="270,220 360,220 340,190 270,190 	"/>
	<polygon id="XMLID_1833_" style="fill:#78B9EB;" points="390,280 220,280 30,280 0,280 0,310 440,310 440,280 	"/>
	<rect id="XMLID_1834_" x="240" y="190" style="fill:#ACABB1;" width="30" height="30"/>
</g>
</svg>